{
    "asset" : {
        "generator" : "Khronos glTF Blender I/O v3.4.50",
        "version" : "2.0"
    },
    "nodes" : [
        {
            "mesh" : 0,
            "name" : "Glow_jellyfish_rigged_Cube.027",
            "rotation" : [
                0.70710688829422,
                0,
                0,
                0.7071066498756409
            ]
        }
    ],
    "materials" : [
        {
            "alphaMode" : "BLEND",
            "doubleSided" : true,
            "emissiveFactor" : [
                1,
                1,
                1
            ],
            "name" : "Textures",
            "pbrMetallicRoughness" : {
                "metallicFactor" : 0,
                "metallicRoughnessTexture" : {
                    "index" : 0
                }
            }
        }
    ],
    "meshes" : [
        {
            "name" : "Glow_jellyfish_rigged_Cube.027",
            "primitives" : [
                {
                    "attributes" : {
                        "POSITION" : 0,
                        "TEXCOORD_0" : 1,
                        "NORMAL" : 2
                    },
                    "indices" : 3,
                    "material" : 0
                }
            ]
        }
    ],
    "textures" : [
        {
            "sampler" : 0,
            "source" : 0
        }
    ],
    "images" : [
        {
            "bufferView" : 4,
            "mimeType" : "image/png",
            "name" : "Image"
        }
    ],
    "accessors" : [
        {
            "bufferView" : 0,
            "componentType" : 5126,
            "count" : 17311,
            "max" : [
                0.7526029944419861,
                0.7799019813537598,
                -0.21908700466156006
            ],
            "min" : [
                -0.7823629975318909,
                -0.7704489827156067,
                -4.4653801918029785
            ],
            "type" : "VEC3"
        },
        {
            "bufferView" : 1,
            "componentType" : 5126,
            "count" : 17311,
            "type" : "VEC2"
        },
        {
            "bufferView" : 2,
            "componentType" : 5126,
            "count" : 17311,
            "type" : "VEC3"
        },
        {
            "bufferView" : 3,
            "componentType" : 5123,
            "count" : 91392,
            "type" : "SCALAR"
        }
    ],
    "bufferViews" : [
        {
            "buffer" : 0,
            "byteLength" : 207732,
            "byteOffset" : 0,
            "target" : 34962
        },
        {
            "buffer" : 0,
            "byteLength" : 138488,
            "byteOffset" : 207732,
            "target" : 34962
        },
        {
            "buffer" : 0,
            "byteLength" : 207732,
            "byteOffset" : 346220,
            "target" : 34962
        },
        {
            "buffer" : 0,
            "byteLength" : 182784,
            "byteOffset" : 553952,
            "target" : 34963
        },
        {
            "buffer" : 0,
            "byteLength" : 90,
            "byteOffset" : 736736
        }
    ],
    "samplers" : [
        {
            "magFilter" : 9729,
            "minFilter" : 9987
        }
    ],
    "buffers" : [
        {
            "byteLength" : 736828,
            "uri" : "data:application/octet-stream;base64,"
        }
    ]
}
