{
    "asset" : {
        "generator" : "Khronos glTF Blender I/O v1.6.16",
        "version" : "2.0"
    },
    "scene" : 0,
    "scenes" : [
        {
            "name" : "Scene",
            "nodes" : [
                0
            ]
        }
    ],
    "nodes" : [
        {
            "mesh" : 0,
            "name" : "Leather_pouf_Mesh",
            "rotation" : [
                0.7071068286895752,
                0,
                0,
                0.7071067094802856
            ],
            "scale" : [
                4,
                4,
                4
            ]
        }
    ],
    "materials" : [
        {
            "doubleSided" : true,
            "name" : "Leather_pouf",
            "pbrMetallicRoughness" : {
                "baseColorFactor" : [
                    0.137254998087883,
                    0.10980399698019028,
                    0.07451000064611435,
                    1
                ],
                "metallicFactor" : 0,
                "roughnessFactor" : 0.5
            }
        },
        {
            "doubleSided" : true,
            "name" : "Leather_seam",
            "pbrMetallicRoughness" : {
                "baseColorFactor" : [
                    0.07274500280618668,
                    0.05819600075483322,
                    0.039489999413490295,
                    1
                ],
                "metallicFactor" : 0,
                "roughnessFactor" : 0.5
            }
        }
    ],
    "meshes" : [
        {
            "name" : "Leather_pouf_Mesh",
            "primitives" : [
                {
                    "attributes" : {
                        "POSITION" : 0,
                        "NORMAL" : 1,
                        "TEXCOORD_0" : 2
                    },
                    "indices" : 3,
                    "material" : 0
                },
                {
                    "attributes" : {
                        "POSITION" : 4,
                        "NORMAL" : 5,
                        "TEXCOORD_0" : 6
                    },
                    "indices" : 7,
                    "material" : 1
                }
            ]
        }
    ],
    "accessors" : [
        {
            "bufferView" : 0,
            "componentType" : 5126,
            "count" : 40918,
            "max" : [
                0.32819101214408875,
                0.3281730115413666,
                0.0007999999797903001
            ],
            "min" : [
                -0.32819101214408875,
                -0.3281730115413666,
                -0.4763549864292145
            ],
            "type" : "VEC3"
        },
        {
            "bufferView" : 1,
            "componentType" : 5126,
            "count" : 40918,
            "type" : "VEC3"
        },
        {
            "bufferView" : 2,
            "componentType" : 5126,
            "count" : 40918,
            "type" : "VEC2"
        },
        {
            "bufferView" : 3,
            "componentType" : 5123,
            "count" : 189966,
            "type" : "SCALAR"
        },
        {
            "bufferView" : 4,
            "componentType" : 5126,
            "count" : 4618,
            "max" : [
                0.24262599647045135,
                0.2442999929189682,
                -0.4405849874019623
            ],
            "min" : [
                -0.2588909864425659,
                -0.25404998660087585,
                -0.5214930176734924
            ],
            "type" : "VEC3"
        },
        {
            "bufferView" : 5,
            "componentType" : 5126,
            "count" : 4618,
            "type" : "VEC3"
        },
        {
            "bufferView" : 6,
            "componentType" : 5126,
            "count" : 4618,
            "type" : "VEC2"
        },
        {
            "bufferView" : 7,
            "componentType" : 5123,
            "count" : 27090,
            "type" : "SCALAR"
        }
    ],
    "bufferViews" : [
        {
            "buffer" : 0,
            "byteLength" : 491016,
            "byteOffset" : 0
        },
        {
            "buffer" : 0,
            "byteLength" : 491016,
            "byteOffset" : 491016
        },
        {
            "buffer" : 0,
            "byteLength" : 327344,
            "byteOffset" : 982032
        },
        {
            "buffer" : 0,
            "byteLength" : 379932,
            "byteOffset" : 1309376
        },
        {
            "buffer" : 0,
            "byteLength" : 55416,
            "byteOffset" : 1689308
        },
        {
            "buffer" : 0,
            "byteLength" : 55416,
            "byteOffset" : 1744724
        },
        {
            "buffer" : 0,
            "byteLength" : 36944,
            "byteOffset" : 1800140
        },
        {
            "buffer" : 0,
            "byteLength" : 54180,
            "byteOffset" : 1837084
        }
    ],
    "buffers" : [
        {
            "byteLength" : 1891264,
            "uri" : "data:application/octet-stream;base64,"
        }
    ]
}
